<!-- icon666.com - MILLIONS vector ICONS FREE --><svg viewBox="0 0 128 128" xmlns="http://www.w3.org/2000/svg"><g id="Layer_1"><path d="m89.637 98.487c-2.177 0-4.353-.828-6.01-2.485l-9.582-9.582c-5.271 3.052-11.245 4.657-17.401 4.657-19.17 0-34.772-15.602-34.78-34.778 0-9.293 3.618-18.029 10.188-24.6 6.57-6.569 15.306-10.188 24.598-10.188h.001.001c19.177.008 34.778 15.61 34.778 34.78 0 6.529-1.789 12.806-5.19 18.282l9.408 9.408c3.314 3.313 3.314 8.706 0 12.021-1.657 1.657-3.834 2.485-6.011 2.485zm-14.899-18.446 12.425 12.425c1.364 1.364 3.585 1.365 4.95 0 1.364-1.364 1.364-3.585 0-4.95l-12.347-12.346 1.22-1.722c3.562-5.024 5.444-10.957 5.444-17.158 0-16.414-13.359-29.773-29.78-29.779-7.956 0-15.436 3.098-21.062 8.723-5.625 5.625-8.724 13.106-8.724 21.063.007 16.42 13.366 29.779 29.78 29.779 5.864 0 11.532-1.698 16.391-4.91zm-18.095-.249c-12.955 0-23.494-10.539-23.494-23.494 0-12.959 10.543-23.502 23.503-23.502 12.954 0 23.494 10.539 23.494 23.494 0 12.959-10.543 23.502-23.503 23.502zm.009-41.996c-10.202 0-18.503 8.3-18.503 18.502 0 10.197 8.296 18.494 18.494 18.494 10.202 0 18.502-8.3 18.502-18.502.001-10.198-8.296-18.494-18.493-18.494z" fill="#000000" style="fill: rgb(255, 255, 255);"></path></g></svg>