<!-- icon666.com - MILLIONS vector ICONS FREE --><svg id="Layer_1" enable-background="new 0 0 64 64" viewBox="0 0 64 64" xmlns="http://www.w3.org/2000/svg"><path d="m8.1 22 1.6-9.8c.4-2.4 2.4-4.2 4.9-4.2h34.8c2.4 0 4.5 1.8 4.9 4.2l1.6 9.8v.3 5.6c0 2-1.2 3.8-2.9 4.6v17.6c0 3.2-2.6 5.8-5.8 5.8h-30.3c-3.2 0-5.8-2.6-5.8-5.8v-17.6c-1.8-.8-2.9-2.7-2.9-4.6v-5.6c-.1-.1-.1-.2-.1-.3zm17.6 31.3v-10.4c0-3.5 2.8-6.3 6.3-6.3 3.4 0 6.3 2.8 6.3 6.3v10.4h8.9c1.7 0 3.1-1.4 3.1-3.1v-17.2c-1.3-.1-2.3-.7-3.2-1.6-1 1.1-2.3 1.7-3.8 1.7s-2.8-.6-3.8-1.7c-1 1.1-2.3 1.7-3.8 1.7s-2.8-.6-3.8-1.7c-1 1.1-2.3 1.7-3.8 1.7s-2.7-.6-3.8-1.7c-1 1.1-2.3 1.7-3.8 1.7s-2.7-.6-3.8-1.7c-.9.9-1.9 1.5-3.2 1.6v17.2c0 1.7 1.4 3.1 3.1 3.1zm9.9 0v-10.4c0-2-1.6-3.6-3.6-3.6s-3.6 1.6-3.6 3.6v10.4zm17.3-32.3-1.3-8.4c-.2-1.1-1.1-1.9-2.2-1.9h-34.8c-1.1 0-2 .8-2.2 1.9l-1.3 8.4zm-4.5 2.7v4.2c0 1.3 1.1 2.4 2.4 2.4s2.4-1.1 2.4-2.4v-4.2zm-7.5 0v4.2c0 1.3 1.1 2.4 2.4 2.4s2.4-1.1 2.4-2.4v-4.2zm-7.5 0v4.2c0 1.3 1.1 2.4 2.4 2.4s2.4-1.1 2.4-2.4v-4.2zm-7.6 0v4.2c0 1.3 1.1 2.4 2.4 2.4s2.4-1.1 2.4-2.4v-4.2zm-7.5 0v4.2c0 1.3 1.1 2.4 2.4 2.4s2.4-1.1 2.4-2.4v-4.2zm-2.7 0h-4.8v4.2c0 1.3 1.1 2.4 2.4 2.4s2.4-1.1 2.4-2.4z" fill="#000000" style="fill: rgb(255, 255, 255);"></path></svg>